# xmcd
#
# Track frame offsets:
#	150
#	22635
#	39637
#	58777
#	78682
#	96920
#	117970
#	139320
#	157812
#	177900
#	196150
#	216709
#	236577
#	256600
#	277892
#	298902
#
# Disc length: 4254 seconds
#
# Revision: 1
# Processed by: cddbd v1.5.1PL0 Copyright (c) Steve Scherf et al.
# Submitted via: CDex 1.50Beta5
#
DISCID=e4109c10
DTITLE=伍代夏子 - 夏子の路〜伍代夏子10周年記念アルバム〜 Disc 1
DYEAR=1996
DGENRE=World
TTITLE0=鳴門海峡
TTITLE1=北の舟唄
TTITLE2=女のひとりごと
TTITLE3=ひとり酒
TTITLE4=恋ざんげ
TTITLE5=雪中花
TTITLE6=恋挽歌
TTITLE7=忍ぶ雨
TTITLE8=水なし川
TTITLE9=戻り川
TTITLE10=湯の町情話
TTITLE11=信濃路ひとり
TTITLE12=道草
TTITLE13=倖せ渡し舟
TTITLE14=港海峡線
TTITLE15=契り橋
EXTD=
EXTT0=
EXTT1=
EXTT2=
EXTT3=
EXTT4=
EXTT5=
EXTT6=
EXTT7=
EXTT8=
EXTT9=
EXTT10=
EXTT11=
EXTT12=
EXTT13=
EXTT14=
EXTT15=
PLAYORDER=
